# xmcd CD database file
#
# Track frame offsets:
#	150
#	10525
#	24287
#	34787
#	47462
#	58975
#	72325
#	86012
#	96475
#	109290
#	118562
#	132730
#	144700
#	158987
#	169150
#
# Disc length: 2427 seconds
#
# Revision: 0
# Processed by: cddbd v1.4b42PL1 Copyright (c) Steve Scherf et al.
# Submitted via: CDex 1.40Beta8
#
DISCID=d209790f
DTITLE=Charley Pride - 30 Years Of Pride Disc 1
DYEAR=1997
DGENRE=Country
TTITLE0=Just Between You And Me
TTITLE1=All I Have To Offer You Is Me
TTITLE2=Does My Ring Hurt Your Finger
TTITLE3=I'd Rather Love You
TTITLE4=The Day The World Stood Still
TTITLE5=All His Children
TTITLE6=Hope You're Feelin' Me
TTITLE7=The Happiness Of Having You
TTITLE8=Crystal Chandeliers
TTITLE9=Kiss An Angel Good Morning
TTITLE10=A Shoulder To Cry On
TTITLE11=It's Gonna Take A Little Bit Longer
TTITLE12=(I'm So) Afraid Of Losing You
TTITLE13=Is Anybody Going To San Antone
TTITLE14=She's Too Good To Be True
EXTD=YEAR: 1997 ID3G: 2
EXTT0=
EXTT1=
EXTT2=
EXTT3=
EXTT4=
EXTT5=
EXTT6=
EXTT7=
EXTT8=
EXTT9=
EXTT10=
EXTT11=
EXTT12=
EXTT13=
EXTT14=
PLAYORDER=
